# xmcd CD database file
#
# Track frame offsets:
#	150
#	71782
#	103562
#	148168
#	216836
#
# Disc length: 3737 seconds
#
# Revision: 0
# Processed by: cddbd v1.5.1PL2 Copyright (c) Steve Scherf et al.
# Submitted via: CDex 1.51
#
DISCID=4d0e9705
DTITLE=Nature Recordings - Rainforest
DYEAR=1900
DGENRE=New Age
TTITLE0=Rainforest 01
TTITLE1=Rainforest 02
TTITLE2=Rainforest 03
TTITLE3=Rainforest 04
TTITLE4=Rainforest 05
EXTD=
EXTT0=
EXTT1=
EXTT2=
EXTT3=
EXTT4=
PLAYORDER=
